<?xml version="1.0" encoding="utf-8" ?><svg xmlns="http://www.w3.org/2000/svg" xmlns:xlink="http://www.w3.org/1999/xlink" width="2048" height="2048" viewBox="0 0 2048 2048"><path fill="#010101" d="M1007.92 226.395C1012.91 225.979 1017.9 225.755 1022.9 225.723C1086.4 225.38 1137.18 245.244 1182.17 290.032C1223.93 331.223 1246.85 387.82 1245.51 446.462C1245.32 453.659 1242.82 481.2 1244.76 486.051C1249.34 497.547 1264.04 517.376 1270.92 528.436L1352.01 657.269C1367.01 680.61 1387.53 708.989 1399.22 733.611C1416.16 769.283 1405.13 818.152 1377.49 844.996C1358.13 864.067 1331.84 874.444 1304.66 873.745C1248.76 872.35 1229.88 840.811 1203.35 798.121C1179.32 759.473 1154.36 720.919 1130.17 682.324C1123.7 671.986 1117.51 661.007 1110.45 651.212C1107.9 647.749 1101.29 651.697 1097.83 652.202C1081.6 657.196 1062.24 663.002 1045.24 663.717C1017.57 664.154 998.393 663.606 970.933 656.975C961.422 654.679 950.426 647.849 943.849 649.399C940.591 650.167 936.833 657.681 934.937 660.736C912.121 697.501 888.593 734.486 865.543 771.059C853.364 790.383 830.452 831.247 816.153 845.819C803.814 858.225 788.303 867.004 771.315 871.196C694.273 890.519 622.618 816.23 650.234 740.511C655.595 725.811 663.872 714.427 672.19 701.377L701.668 655.336L808.094 485.196C807.438 473.758 805.666 457.554 805.736 446.691C806.123 396.539 823.178 347.939 854.216 308.543C893.375 259.348 946.257 233.261 1007.92 226.395ZM1030.49 558.764C1093.55 556.716 1143.04 503.987 1141.08 440.926C1139.13 377.866 1086.47 328.302 1023.41 330.162C960.214 332.026 910.523 384.817 912.481 448.01C914.439 511.203 967.304 560.816 1030.49 558.764Z"/><path fill="#010101" d="M1444.36 918.391C1510.39 918.025 1529.66 960.119 1560.5 1009.21L1596.56 1066.79L1657.55 1163.64C1667.08 1178.73 1678.02 1196.58 1688.35 1211.21C1695.51 1219.13 1705.77 1223.53 1714.32 1229.65C1868.94 1340.54 1814.4 1585.87 1627.05 1622.44C1571.66 1633.31 1514.2 1622.32 1466.73 1591.77C1452.27 1582.33 1440.7 1570.09 1426.79 1561.07C1409.56 1560.8 1392 1560.94 1374.75 1560.9L1225.2 1560.81C1200.93 1560.8 1160.49 1563.24 1137.88 1558.26C1067.41 1541.04 1039.29 1453.99 1086.06 1398.55C1124.74 1352.7 1171.82 1361.2 1226.15 1361.17L1356.69 1361.43C1374.26 1361.31 1372.46 1356.58 1377.31 1340.99C1391.41 1295.64 1419.61 1257.65 1458.5 1230.6C1460.36 1229.3 1459.87 1224.84 1458.78 1223.11C1451.58 1211.7 1444.3 1200.35 1437.09 1188.89L1383.19 1103.33C1357.29 1062.22 1332.53 1030.81 1355.01 979.69C1372.63 939.643 1401.96 922.414 1444.36 918.391ZM1605.4 1519.12C1667.81 1508.34 1709.64 1448.99 1698.81 1386.59C1687.99 1324.2 1628.61 1282.4 1566.22 1293.27C1503.89 1304.13 1462.15 1363.44 1472.96 1425.78C1483.78 1488.11 1543.06 1529.9 1605.4 1519.12Z"/><path fill="#010101" d="M592.289 919.587C601.289 918.554 610.379 918.56 619.377 919.605C645.112 922.647 668.107 937.799 683.868 957.964C706.289 986.817 710.714 1025.78 695.334 1058.92C687.383 1075.82 673.946 1092.68 664.367 1108.87C643.347 1144.3 620.088 1178.36 598.732 1213.58C595.565 1219.57 586.392 1227.37 595.127 1233.09C633.57 1258.26 661.759 1299.51 674.785 1343.3C675.252 1345.26 680.23 1359.41 681.497 1359.9C688.587 1362.64 721.905 1361.17 728.439 1361.15L831.824 1361.11C850.692 1361.11 869.63 1361.53 888.456 1361.45C940.654 1361.25 987.67 1406.93 988.185 1459.39C988.199 1487.09 977.152 1513.64 957.5 1533.16C922.379 1568.63 876.807 1560.89 831.02 1560.87L686.75 1560.88C666.644 1561.02 646.536 1560.86 626.435 1560.41C615.835 1565.58 606.365 1577.61 596.117 1584.99C453.435 1687.43 253.619 1590.05 247.765 1413.13C245.25 1337.12 279.28 1273.3 339.907 1227.65C347.218 1222.14 360.764 1217.58 365.822 1209.83C379.735 1188.52 393.199 1166.87 406.754 1145.32L485.94 1019.25C511.034 979.076 537.351 921.231 592.289 919.587ZM480.505 1520.09C543.397 1512.13 587.825 1454.55 579.56 1391.69C571.295 1328.84 513.49 1284.7 450.68 1293.28C388.308 1301.79 344.541 1359.11 352.748 1421.52C360.955 1483.93 418.052 1527.98 480.505 1520.09Z"/><path fill="#B4B0AD" fill-opacity="0.73725492" d="M1024.48 887.241C1025.69 887.662 1027.2 888.103 1027.62 889.586C1051.15 970.992 1112.28 1027.2 1194.85 1049.4L1195.1 1050.93C1192.52 1057.61 1185.09 1055.11 1178.82 1057.4C1108.48 1083.04 1051.72 1134.71 1031.88 1208.52C1030.73 1212.81 1029.88 1215.43 1028.14 1219.66L1026.04 1220.06L1024.48 1218.82C1005.04 1151.32 959.204 1095.61 895.266 1066.6C891.336 1064.81 859.244 1053.04 858.978 1052.78L858.938 1050.71C860.337 1049.08 862.285 1047.71 864.394 1047.15C948.963 1024.42 997.762 967.863 1024.48 887.241ZM1184.94 1051.22C1179.38 1049.25 1170.23 1047.04 1165.84 1042.74C1158.57 1041.47 1149.99 1037.07 1142.66 1033.45C1091.36 1008.11 1047.69 959.527 1029.48 905.189C1028.78 903.101 1028.9 903.079 1027.39 901.343L1025.42 900.596C1022.15 902.69 1017.39 919.043 1014.39 924.941C980.026 992.514 936.383 1028.69 865.361 1052.06L867.095 1052.39C879.322 1054.78 887.085 1059.24 898.151 1064.45C940.547 1084.43 971.212 1111.69 997.154 1150.54C1000.98 1156.17 1004.36 1162.09 1007.28 1168.23C1010.61 1175.24 1022.2 1203.98 1026.09 1207.91L1027.28 1207.8C1033.79 1191.25 1040.74 1171.88 1050.21 1155.88C1079.04 1107.11 1127.64 1071.73 1180.71 1053.32C1183.23 1052.45 1182.62 1053 1184.94 1051.22Z"/><path fill="#B4B0AD" fill-opacity="0.98431373" d="M865.361 1052.06C936.383 1028.69 980.026 992.514 1014.39 924.941C1017.39 919.043 1022.15 902.69 1025.42 900.596L1027.39 901.343C1028.9 903.079 1028.78 903.101 1029.48 905.189C1047.69 959.527 1091.36 1008.11 1142.66 1033.45C1149.99 1037.07 1158.57 1041.47 1165.84 1042.74C1164.83 1044.54 1163.91 1046.06 1161.34 1046.41C1160.85 1046.47 1148.56 1045.88 1155.04 1050.75C1156.07 1051.51 1162.38 1050.68 1163.49 1051.06C1165.48 1051.29 1170.29 1049.3 1172.37 1049.3C1174.29 1052.93 1179.94 1051.52 1184.94 1051.22C1182.62 1053 1183.23 1052.45 1180.71 1053.32C1127.64 1071.73 1079.04 1107.11 1050.21 1155.88C1040.74 1171.88 1033.79 1191.25 1027.28 1207.8L1026.09 1207.91C1022.2 1203.98 1010.61 1175.24 1007.28 1168.23C1004.36 1162.09 1000.98 1156.17 997.154 1150.54C971.212 1111.69 940.547 1084.43 898.151 1064.45C887.085 1059.24 879.322 1054.78 867.095 1052.39L865.361 1052.06Z"/><path fill="#B4B0AD" fill-opacity="0.95294118" d="M1165.84 1042.74C1170.23 1047.04 1179.38 1049.25 1184.94 1051.22C1179.94 1051.52 1174.29 1052.93 1172.37 1049.3C1170.29 1049.3 1165.48 1051.29 1163.49 1051.06C1162.38 1050.68 1156.07 1051.51 1155.04 1050.75C1148.56 1045.88 1160.85 1046.47 1161.34 1046.41C1163.91 1046.06 1164.83 1044.54 1165.84 1042.74Z"/></svg>